# xmcd CD database file
#
# Track frame offsets:
#	150
#	18368
#	38822
#	79702
#	93803
#	103193
#	128159
#	145337
#	158906
#	171713
#	190565
#	226963
#	242448
#	254955
#	268366
#
# Disc length: 3891 seconds
#
# Revision: 0
# Processed by: cddbd v1.5.1PL0 Copyright (c) Steve Scherf et al.
# Submitted via: CDex 1.51
#
DISCID=ce0f310f
DTITLE=Joe Cuba - Best of
DYEAR=1900
DGENRE=Salsa
TTITLE0=Bang! Bang!
TTITLE1=Mujer divina
TTITLE2=Cocinando
TTITLE3=To be with you
TTITLE4=Y tu abuela dode est?
TTITLE5=El pito
TTITLE6=El raton
TTITLE7=Oriza oco
TTITLE8=La tortilla
TTITLE9=Contgo aprendl
TTITLE10=Pataquiribiquambambaram
TTITLE11=Elube chango
TTITLE12=Ay! Milagro
TTITLE13=Mi lindo son
TTITLE14=Mi salsa buena
EXTD=
EXTT0=
EXTT1=
EXTT2=
EXTT3=
EXTT4=
EXTT5=
EXTT6=
EXTT7=
EXTT8=
EXTT9=
EXTT10=
EXTT11=
EXTT12=
EXTT13=
EXTT14=
PLAYORDER=
